<svg width="164" height="79" viewBox="0 0 164 79" fill="none" xmlns="http://www.w3.org/2000/svg">
<mask id="path-1-outside-1_1_3" maskUnits="userSpaceOnUse" x="0" y="0" width="164" height="79" fill="black">
<rect fill="white" width="164" height="79"/>
<path d="M38.6818 1.45454V48H32.2273L8.56818 13.8636H8.13636V48H1.11364V1.45454H7.61364L31.2955 35.6364H31.7273V1.45454H38.6818ZM55.9489 1.45454V48H48.9261V1.45454H55.9489ZM96.108 1.45454H103.153V32.0682C103.153 35.3258 102.388 38.2121 100.858 40.7273C99.3277 43.2273 97.1761 45.197 94.4034 46.6364C91.6307 48.0606 88.3807 48.7727 84.6534 48.7727C80.9413 48.7727 77.6989 48.0606 74.9261 46.6364C72.1534 45.197 70.0019 43.2273 68.4716 40.7273C66.9413 38.2121 66.1761 35.3258 66.1761 32.0682V1.45454H73.1989V31.5C73.1989 33.6061 73.661 35.4773 74.5852 37.1136C75.5246 38.75 76.8504 40.0379 78.5625 40.9773C80.2746 41.9015 82.3049 42.3636 84.6534 42.3636C87.017 42.3636 89.0549 41.9015 90.767 40.9773C92.4943 40.0379 93.8125 38.75 94.7216 37.1136C95.6458 35.4773 96.108 33.6061 96.108 31.5V1.45454ZM113.364 1.45454H121.886L136.705 37.6364H137.25L152.068 1.45454H160.591V48H153.909V14.3182H153.477L139.75 47.9318H134.205L120.477 14.2955H120.045V48H113.364V1.45454ZM99.0114 77V62.4545H107.733V64.017H100.773V68.9318H107.08V70.4943H100.773V77H99.0114ZM123.022 69.7273C123.022 71.2614 122.745 72.5871 122.191 73.7045C121.637 74.822 120.877 75.6837 119.912 76.2898C118.946 76.8958 117.842 77.1989 116.602 77.1989C115.361 77.1989 114.258 76.8958 113.292 76.2898C112.326 75.6837 111.566 74.822 111.012 73.7045C110.458 72.5871 110.181 71.2614 110.181 69.7273C110.181 68.1932 110.458 66.8674 111.012 65.75C111.566 64.6326 112.326 63.7708 113.292 63.1648C114.258 62.5587 115.361 62.2557 116.602 62.2557C117.842 62.2557 118.946 62.5587 119.912 63.1648C120.877 63.7708 121.637 64.6326 122.191 65.75C122.745 66.8674 123.022 68.1932 123.022 69.7273ZM121.318 69.7273C121.318 68.4678 121.107 67.4048 120.686 66.5384C120.269 65.6719 119.703 65.0161 118.988 64.571C118.278 64.1259 117.483 63.9034 116.602 63.9034C115.721 63.9034 114.923 64.1259 114.208 64.571C113.498 65.0161 112.932 65.6719 112.511 66.5384C112.094 67.4048 111.886 68.4678 111.886 69.7273C111.886 70.9867 112.094 72.0497 112.511 72.9162C112.932 73.7827 113.498 74.4384 114.208 74.8835C114.923 75.3286 115.721 75.5511 116.602 75.5511C117.483 75.5511 118.278 75.3286 118.988 74.8835C119.703 74.4384 120.269 73.7827 120.686 72.9162C121.107 72.0497 121.318 70.9867 121.318 69.7273ZM125.984 77V62.4545H130.899C132.035 62.4545 132.968 62.6487 133.697 63.0369C134.426 63.4205 134.966 63.9484 135.316 64.6207C135.667 65.2931 135.842 66.0578 135.842 66.9148C135.842 67.7718 135.667 68.5317 135.316 69.1946C134.966 69.8575 134.429 70.3783 133.704 70.7571C132.98 71.1312 132.054 71.3182 130.927 71.3182H126.95V69.7273H130.87C131.647 69.7273 132.272 69.6136 132.745 69.3864C133.224 69.1591 133.569 68.8371 133.782 68.4205C134 67.9991 134.109 67.4972 134.109 66.9148C134.109 66.3324 134 65.8234 133.782 65.3878C133.565 64.9522 133.217 64.616 132.738 64.3793C132.26 64.1378 131.628 64.017 130.842 64.017H127.745V77H125.984ZM132.831 70.4659L136.41 77H134.365L130.842 70.4659H132.831ZM138.777 77V62.4545H147.555V64.017H140.538V68.9318H147.101V70.4943H140.538V75.4375H147.669V77H138.777ZM151.582 62.4545L155.332 68.5057H155.446L159.196 62.4545H161.27L156.696 69.7273L161.27 77H159.196L155.446 71.0625H155.332L151.582 77H149.509L154.196 69.7273L149.509 62.4545H151.582Z"/>
</mask>
<path d="M38.6818 1.45454V48H32.2273L8.56818 13.8636H8.13636V48H1.11364V1.45454H7.61364L31.2955 35.6364H31.7273V1.45454H38.6818ZM55.9489 1.45454V48H48.9261V1.45454H55.9489ZM96.108 1.45454H103.153V32.0682C103.153 35.3258 102.388 38.2121 100.858 40.7273C99.3277 43.2273 97.1761 45.197 94.4034 46.6364C91.6307 48.0606 88.3807 48.7727 84.6534 48.7727C80.9413 48.7727 77.6989 48.0606 74.9261 46.6364C72.1534 45.197 70.0019 43.2273 68.4716 40.7273C66.9413 38.2121 66.1761 35.3258 66.1761 32.0682V1.45454H73.1989V31.5C73.1989 33.6061 73.661 35.4773 74.5852 37.1136C75.5246 38.75 76.8504 40.0379 78.5625 40.9773C80.2746 41.9015 82.3049 42.3636 84.6534 42.3636C87.017 42.3636 89.0549 41.9015 90.767 40.9773C92.4943 40.0379 93.8125 38.75 94.7216 37.1136C95.6458 35.4773 96.108 33.6061 96.108 31.5V1.45454ZM113.364 1.45454H121.886L136.705 37.6364H137.25L152.068 1.45454H160.591V48H153.909V14.3182H153.477L139.75 47.9318H134.205L120.477 14.2955H120.045V48H113.364V1.45454ZM99.0114 77V62.4545H107.733V64.017H100.773V68.9318H107.08V70.4943H100.773V77H99.0114ZM123.022 69.7273C123.022 71.2614 122.745 72.5871 122.191 73.7045C121.637 74.822 120.877 75.6837 119.912 76.2898C118.946 76.8958 117.842 77.1989 116.602 77.1989C115.361 77.1989 114.258 76.8958 113.292 76.2898C112.326 75.6837 111.566 74.822 111.012 73.7045C110.458 72.5871 110.181 71.2614 110.181 69.7273C110.181 68.1932 110.458 66.8674 111.012 65.75C111.566 64.6326 112.326 63.7708 113.292 63.1648C114.258 62.5587 115.361 62.2557 116.602 62.2557C117.842 62.2557 118.946 62.5587 119.912 63.1648C120.877 63.7708 121.637 64.6326 122.191 65.75C122.745 66.8674 123.022 68.1932 123.022 69.7273ZM121.318 69.7273C121.318 68.4678 121.107 67.4048 120.686 66.5384C120.269 65.6719 119.703 65.0161 118.988 64.571C118.278 64.1259 117.483 63.9034 116.602 63.9034C115.721 63.9034 114.923 64.1259 114.208 64.571C113.498 65.0161 112.932 65.6719 112.511 66.5384C112.094 67.4048 111.886 68.4678 111.886 69.7273C111.886 70.9867 112.094 72.0497 112.511 72.9162C112.932 73.7827 113.498 74.4384 114.208 74.8835C114.923 75.3286 115.721 75.5511 116.602 75.5511C117.483 75.5511 118.278 75.3286 118.988 74.8835C119.703 74.4384 120.269 73.7827 120.686 72.9162C121.107 72.0497 121.318 70.9867 121.318 69.7273ZM125.984 77V62.4545H130.899C132.035 62.4545 132.968 62.6487 133.697 63.0369C134.426 63.4205 134.966 63.9484 135.316 64.6207C135.667 65.2931 135.842 66.0578 135.842 66.9148C135.842 67.7718 135.667 68.5317 135.316 69.1946C134.966 69.8575 134.429 70.3783 133.704 70.7571C132.98 71.1312 132.054 71.3182 130.927 71.3182H126.95V69.7273H130.87C131.647 69.7273 132.272 69.6136 132.745 69.3864C133.224 69.1591 133.569 68.8371 133.782 68.4205C134 67.9991 134.109 67.4972 134.109 66.9148C134.109 66.3324 134 65.8234 133.782 65.3878C133.565 64.9522 133.217 64.616 132.738 64.3793C132.26 64.1378 131.628 64.017 130.842 64.017H127.745V77H125.984ZM132.831 70.4659L136.41 77H134.365L130.842 70.4659H132.831ZM138.777 77V62.4545H147.555V64.017H140.538V68.9318H147.101V70.4943H140.538V75.4375H147.669V77H138.777ZM151.582 62.4545L155.332 68.5057H155.446L159.196 62.4545H161.27L156.696 69.7273L161.27 77H159.196L155.446 71.0625H155.332L151.582 77H149.509L154.196 69.7273L149.509 62.4545H151.582Z" fill="#080808"/>
<path d="M38.6818 1.45454H39.6818V0.454544H38.6818V1.45454ZM38.6818 48V49H39.6818V48H38.6818ZM32.2273 48L31.4054 48.5696L31.7036 49H32.2273V48ZM8.56818 13.8636L9.39008 13.294L9.0918 12.8636H8.56818V13.8636ZM8.13636 13.8636V12.8636H7.13636V13.8636H8.13636ZM8.13636 48V49H9.13636V48H8.13636ZM1.11364 48H0.113636V49H1.11364V48ZM1.11364 1.45454V0.454544H0.113636V1.45454H1.11364ZM7.61364 1.45454L8.43563 0.88505L8.13737 0.454544H7.61364V1.45454ZM31.2955 35.6364L30.4735 36.2059L30.7717 36.6364H31.2955V35.6364ZM31.7273 35.6364V36.6364H32.7273V35.6364H31.7273ZM31.7273 1.45454V0.454544H30.7273V1.45454H31.7273ZM37.6818 1.45454V48H39.6818V1.45454H37.6818ZM38.6818 47H32.2273V49H38.6818V47ZM33.0492 47.4304L9.39008 13.294L7.74629 14.4333L31.4054 48.5696L33.0492 47.4304ZM8.56818 12.8636H8.13636V14.8636H8.56818V12.8636ZM7.13636 13.8636V48H9.13636V13.8636H7.13636ZM8.13636 47H1.11364V49H8.13636V47ZM2.11364 48V1.45454H0.113636V48H2.11364ZM1.11364 2.45454H7.61364V0.454544H1.11364V2.45454ZM6.79164 2.02404L30.4735 36.2059L32.1175 35.0669L8.43563 0.88505L6.79164 2.02404ZM31.2955 36.6364H31.7273V34.6364H31.2955V36.6364ZM32.7273 35.6364V1.45454H30.7273V35.6364H32.7273ZM31.7273 2.45454H38.6818V0.454544H31.7273V2.45454ZM55.9489 1.45454H56.9489V0.454544H55.9489V1.45454ZM55.9489 48V49H56.9489V48H55.9489ZM48.9261 48H47.9261V49H48.9261V48ZM48.9261 1.45454V0.454544H47.9261V1.45454H48.9261ZM54.9489 1.45454V48H56.9489V1.45454H54.9489ZM55.9489 47H48.9261V49H55.9489V47ZM49.9261 48V1.45454H47.9261V48H49.9261ZM48.9261 2.45454H55.9489V0.454544H48.9261V2.45454ZM96.108 1.45454V0.454544H95.108V1.45454H96.108ZM103.153 1.45454H104.153V0.454544H103.153V1.45454ZM100.858 40.7273L101.711 41.2494L101.712 41.2471L100.858 40.7273ZM94.4034 46.6364L94.8603 47.5259L94.8642 47.5239L94.4034 46.6364ZM74.9261 46.6364L74.4654 47.5239L74.4692 47.5259L74.9261 46.6364ZM68.4716 40.7273L67.6173 41.2471L67.6187 41.2493L68.4716 40.7273ZM66.1761 1.45454V0.454544H65.1761V1.45454H66.1761ZM73.1989 1.45454H74.1989V0.454544H73.1989V1.45454ZM74.5852 37.1136L73.7145 37.6054L73.718 37.6115L74.5852 37.1136ZM78.5625 40.9773L78.0815 41.854L78.0875 41.8572L78.5625 40.9773ZM90.767 40.9773L91.2421 41.8572L91.2448 41.8558L90.767 40.9773ZM94.7216 37.1136L93.8509 36.6218L93.8474 36.628L94.7216 37.1136ZM96.108 2.45454H103.153V0.454544H96.108V2.45454ZM102.153 1.45454V32.0682H104.153V1.45454H102.153ZM102.153 32.0682C102.153 35.1625 101.429 37.8653 100.004 40.2075L101.712 41.2471C103.348 38.5589 104.153 35.489 104.153 32.0682H102.153ZM100.005 40.2052C98.5761 42.5397 96.5649 44.3876 93.9427 45.7488L94.8642 47.5239C97.7874 46.0064 100.079 43.9149 101.711 41.2493L100.005 40.2052ZM93.9465 45.7468C91.3403 47.0856 88.2526 47.7727 84.6534 47.7727V49.7727C88.5087 49.7727 91.9211 49.0356 94.8603 47.5259L93.9465 45.7468ZM84.6534 47.7727C81.0701 47.7727 77.9898 47.0859 75.383 45.7468L74.4692 47.5259C77.4079 49.0354 80.8125 49.7727 84.6534 49.7727V47.7727ZM75.3869 45.7488C72.7646 44.3876 70.7535 42.5397 69.3245 40.2052L67.6187 41.2493C69.2503 43.9149 71.5422 46.0064 74.4654 47.5239L75.3869 45.7488ZM69.3259 40.2075C67.9008 37.8653 67.1761 35.1625 67.1761 32.0682H65.1761C65.1761 35.489 65.9818 38.5589 67.6173 41.2471L69.3259 40.2075ZM67.1761 32.0682V1.45454H65.1761V32.0682H67.1761ZM66.1761 2.45454H73.1989V0.454544H66.1761V2.45454ZM72.1989 1.45454V31.5H74.1989V1.45454H72.1989ZM72.1989 31.5C72.1989 33.7572 72.6957 35.8016 73.7145 37.6054L75.4559 36.6218C74.6263 35.153 74.1989 33.4549 74.1989 31.5H72.1989ZM73.718 37.6115C74.7522 39.413 76.2142 40.8294 78.0815 41.854L79.0435 40.1006C77.4866 39.2463 76.2971 38.087 75.4525 36.6158L73.718 37.6115ZM78.0875 41.8572C79.9729 42.875 82.1732 43.3636 84.6534 43.3636V41.3636C82.4367 41.3636 80.5764 40.928 79.0375 40.0973L78.0875 41.8572ZM84.6534 43.3636C87.1476 43.3636 89.3558 42.8755 91.2421 41.8572L90.292 40.0973C88.754 40.9275 86.8865 41.3636 84.6534 41.3636V43.3636ZM91.2448 41.8558C93.13 40.8305 94.5897 39.4101 95.5957 37.5993L93.8474 36.628C93.0353 38.0899 91.8586 39.2453 90.2893 40.0988L91.2448 41.8558ZM95.5923 37.6054C96.6111 35.8016 97.108 33.7572 97.108 31.5H95.108C95.108 33.4549 94.6805 35.153 93.8509 36.6218L95.5923 37.6054ZM97.108 31.5V1.45454H95.108V31.5H97.108ZM113.364 1.45454V0.454544H112.364V1.45454H113.364ZM121.886 1.45454L122.812 1.07555L122.557 0.454544H121.886V1.45454ZM136.705 37.6364L135.779 38.0154L136.033 38.6364H136.705V37.6364ZM137.25 37.6364V38.6364H137.921L138.175 38.0154L137.25 37.6364ZM152.068 1.45454V0.454544H151.397L151.143 1.07555L152.068 1.45454ZM160.591 1.45454H161.591V0.454544H160.591V1.45454ZM160.591 48V49H161.591V48H160.591ZM153.909 48H152.909V49H153.909V48ZM153.909 14.3182H154.909V13.3182H153.909V14.3182ZM153.477 14.3182V13.3182H152.805L152.551 13.9401L153.477 14.3182ZM139.75 47.9318V48.9318H140.422L140.676 48.3099L139.75 47.9318ZM134.205 47.9318L133.279 48.3097L133.533 48.9318H134.205V47.9318ZM120.477 14.2955L121.403 13.9176L121.149 13.2955H120.477V14.2955ZM120.045 14.2955V13.2955H119.045V14.2955H120.045ZM120.045 48V49H121.045V48H120.045ZM113.364 48H112.364V49H113.364V48ZM113.364 2.45454H121.886V0.454544H113.364V2.45454ZM120.961 1.83354L135.779 38.0154L137.63 37.2574L122.812 1.07555L120.961 1.83354ZM136.705 38.6364H137.25V36.6364H136.705V38.6364ZM138.175 38.0154L152.994 1.83354L151.143 1.07555L136.325 37.2574L138.175 38.0154ZM152.068 2.45454H160.591V0.454544H152.068V2.45454ZM159.591 1.45454V48H161.591V1.45454H159.591ZM160.591 47H153.909V49H160.591V47ZM154.909 48V14.3182H152.909V48H154.909ZM153.909 13.3182H153.477V15.3182H153.909V13.3182ZM152.551 13.9401L138.824 47.5537L140.676 48.3099L154.403 14.6963L152.551 13.9401ZM139.75 46.9318H134.205V48.9318H139.75V46.9318ZM135.13 47.554L121.403 13.9176L119.551 14.6733L133.279 48.3097L135.13 47.554ZM120.477 13.2955H120.045V15.2955H120.477V13.2955ZM119.045 14.2955V48H121.045V14.2955H119.045ZM120.045 47H113.364V49H120.045V47ZM114.364 48V1.45454H112.364V48H114.364ZM99.0114 77H98.0114V78H99.0114V77ZM99.0114 62.4545V61.4545H98.0114V62.4545H99.0114ZM107.733 62.4545H108.733V61.4545H107.733V62.4545ZM107.733 64.017V65.017H108.733V64.017H107.733ZM100.773 64.017V63.017H99.7727V64.017H100.773ZM100.773 68.9318H99.7727V69.9318H100.773V68.9318ZM107.08 68.9318H108.08V67.9318H107.08V68.9318ZM107.08 70.4943V71.4943H108.08V70.4943H107.08ZM100.773 70.4943V69.4943H99.7727V70.4943H100.773ZM100.773 77V78H101.773V77H100.773ZM100.011 77V62.4545H98.0114V77H100.011ZM99.0114 63.4545H107.733V61.4545H99.0114V63.4545ZM106.733 62.4545V64.017H108.733V62.4545H106.733ZM107.733 63.017H100.773V65.017H107.733V63.017ZM99.7727 64.017V68.9318H101.773V64.017H99.7727ZM100.773 69.9318H107.08V67.9318H100.773V69.9318ZM106.08 68.9318V70.4943H108.08V68.9318H106.08ZM107.08 69.4943H100.773V71.4943H107.08V69.4943ZM99.7727 70.4943V77H101.773V70.4943H99.7727ZM100.773 76H99.0114V78H100.773V76ZM122.191 73.7045L121.295 73.2604L121.295 73.2604L122.191 73.7045ZM119.912 76.2898L120.443 77.1368L120.443 77.1368L119.912 76.2898ZM113.292 76.2898L112.761 77.1368L112.761 77.1368L113.292 76.2898ZM111.012 73.7045L111.908 73.2604L111.908 73.2604L111.012 73.7045ZM111.012 65.75L110.116 65.3058L111.012 65.75ZM119.912 63.1648L120.443 62.3177L120.443 62.3177L119.912 63.1648ZM122.191 65.75L121.295 66.1942L121.295 66.1942L122.191 65.75ZM120.686 66.5384L119.785 66.9717L119.786 66.9757L120.686 66.5384ZM118.988 64.571L118.457 65.4184L118.46 65.42L118.988 64.571ZM114.208 64.571L113.68 63.7221L113.677 63.7237L114.208 64.571ZM112.511 66.5384L111.612 66.101L111.61 66.105L112.511 66.5384ZM112.511 72.9162L111.61 73.3496L111.612 73.3536L112.511 72.9162ZM114.208 74.8835L113.677 75.7309L113.68 75.7325L114.208 74.8835ZM118.988 74.8835L118.46 74.0346L118.457 74.0362L118.988 74.8835ZM120.686 72.9162L119.786 72.4788L119.785 72.4828L120.686 72.9162ZM122.022 69.7273C122.022 71.1421 121.767 72.3091 121.295 73.2604L123.087 74.1487C123.724 72.8651 124.022 71.3807 124.022 69.7273H122.022ZM121.295 73.2604C120.816 74.2285 120.175 74.9438 119.38 75.4427L120.443 77.1368C121.58 76.4236 122.459 75.4155 123.087 74.1487L121.295 73.2604ZM119.38 75.4427C118.587 75.9401 117.672 76.1989 116.602 76.1989V78.1989C118.013 78.1989 119.304 77.8516 120.443 77.1368L119.38 75.4427ZM116.602 76.1989C115.532 76.1989 114.616 75.9401 113.824 75.4427L112.761 77.1368C113.9 77.8516 115.191 78.1989 116.602 78.1989V76.1989ZM113.824 75.4427C113.029 74.9438 112.388 74.2285 111.908 73.2604L110.116 74.1487C110.744 75.4155 111.624 76.4236 112.761 77.1368L113.824 75.4427ZM111.908 73.2604C111.437 72.3091 111.181 71.1421 111.181 69.7273H109.181C109.181 71.3807 109.48 72.8651 110.116 74.1487L111.908 73.2604ZM111.181 69.7273C111.181 68.3125 111.437 67.1454 111.908 66.1942L110.116 65.3058C109.48 66.5894 109.181 68.0739 109.181 69.7273H111.181ZM111.908 66.1942C112.388 65.2261 113.029 64.5107 113.824 64.0118L112.761 62.3177C111.624 63.031 110.744 64.0391 110.116 65.3058L111.908 66.1942ZM113.824 64.0118C114.616 63.5144 115.532 63.2557 116.602 63.2557V61.2557C115.191 61.2557 113.9 61.603 112.761 62.3177L113.824 64.0118ZM116.602 63.2557C117.672 63.2557 118.587 63.5144 119.38 64.0118L120.443 62.3177C119.304 61.603 118.013 61.2557 116.602 61.2557V63.2557ZM119.38 64.0118C120.175 64.5107 120.816 65.2261 121.295 66.1942L123.087 65.3058C122.459 64.0391 121.58 63.031 120.443 62.3177L119.38 64.0118ZM121.295 66.1942C121.767 67.1454 122.022 68.3125 122.022 69.7273H124.022C124.022 68.0739 123.724 66.5894 123.087 65.3058L121.295 66.1942ZM122.318 69.7273C122.318 68.361 122.09 67.1389 121.585 66.101L119.786 66.9757C120.124 67.6707 120.318 68.5746 120.318 69.7273H122.318ZM121.587 66.105C121.1 65.0923 120.415 64.2811 119.517 63.7221L118.46 65.42C118.992 65.7511 119.438 66.2515 119.785 66.9717L121.587 66.105ZM119.519 63.7237C118.642 63.1737 117.66 62.9034 116.602 62.9034V64.9034C117.305 64.9034 117.914 65.0782 118.457 65.4184L119.519 63.7237ZM116.602 62.9034C115.543 62.9034 114.561 63.1736 113.68 63.7221L114.737 65.42C115.286 65.0782 115.899 64.9034 116.602 64.9034V62.9034ZM113.677 63.7237C112.786 64.2824 112.103 65.0918 111.612 66.101L113.41 66.9757C113.762 66.252 114.211 65.7498 114.739 65.4184L113.677 63.7237ZM111.61 66.105C111.111 67.1418 110.886 68.3624 110.886 69.7273H112.886C112.886 68.5732 113.077 67.6678 113.412 66.9717L111.61 66.105ZM110.886 69.7273C110.886 71.0922 111.111 72.3127 111.61 73.3496L113.412 72.4828C113.077 71.7867 112.886 70.8813 112.886 69.7273H110.886ZM111.612 73.3536C112.103 74.3628 112.786 75.1722 113.677 75.7309L114.739 74.0362C114.211 73.7047 113.762 73.2026 113.41 72.4788L111.612 73.3536ZM113.68 75.7325C114.561 76.2809 115.543 76.5511 116.602 76.5511V74.5511C115.899 74.5511 115.286 74.3763 114.737 74.0346L113.68 75.7325ZM116.602 76.5511C117.66 76.5511 118.642 76.2809 119.519 75.7309L118.457 74.0362C117.914 74.3763 117.305 74.5511 116.602 74.5511V76.5511ZM119.517 75.7325C120.415 75.1734 121.1 74.3623 121.587 73.3496L119.785 72.4828C119.438 73.203 118.992 73.7035 118.46 74.0346L119.517 75.7325ZM121.585 73.3536C122.09 72.3156 122.318 71.0936 122.318 69.7273H120.318C120.318 70.8799 120.124 71.7838 119.786 72.4788L121.585 73.3536ZM125.984 77H124.984V78H125.984V77ZM125.984 62.4545V61.4545H124.984V62.4545H125.984ZM133.697 63.0369L133.227 63.9196L133.232 63.922L133.697 63.0369ZM135.316 64.6207L134.43 65.0829L134.43 65.0829L135.316 64.6207ZM135.316 69.1946L134.432 68.7273L134.432 68.7273L135.316 69.1946ZM133.704 70.7571L134.163 71.6457L134.168 71.6433L133.704 70.7571ZM126.95 71.3182H125.95V72.3182H126.95V71.3182ZM126.95 69.7273V68.7273H125.95V69.7273H126.95ZM132.745 69.3864L132.316 68.4832L132.313 68.4848L132.745 69.3864ZM133.782 68.4205L132.894 67.9613L132.892 67.9652L133.782 68.4205ZM132.738 64.3793L132.288 65.2719L132.295 65.2755L132.738 64.3793ZM127.745 64.017V63.017H126.745V64.017H127.745ZM127.745 77V78H128.745V77H127.745ZM132.831 70.4659L133.708 69.9855L133.423 69.4659H132.831V70.4659ZM136.41 77V78H138.098L137.287 76.5195L136.41 77ZM134.365 77L133.484 77.4746L133.768 78H134.365V77ZM130.842 70.4659V69.4659H129.167L129.962 70.9405L130.842 70.4659ZM126.984 77V62.4545H124.984V77H126.984ZM125.984 63.4545H130.899V61.4545H125.984V63.4545ZM130.899 63.4545C131.93 63.4545 132.687 63.6318 133.227 63.9196L134.167 62.1543C133.249 61.6655 132.141 61.4545 130.899 61.4545V63.4545ZM133.232 63.922C133.797 64.2193 134.182 64.6069 134.43 65.0829L136.203 64.1586C135.751 63.2899 135.056 62.6216 134.163 62.1519L133.232 63.922ZM134.43 65.0829C134.696 65.5948 134.842 66.1975 134.842 66.9148H136.842C136.842 65.9181 136.637 64.9913 136.203 64.1586L134.43 65.0829ZM134.842 66.9148C134.842 67.6324 134.696 68.2278 134.432 68.7273L136.201 69.6619C136.637 68.8356 136.842 67.9112 136.842 66.9148H134.842ZM134.432 68.7273C134.185 69.195 133.803 69.5771 133.241 69.8709L134.168 71.6433C135.054 71.1795 135.747 70.52 136.201 69.6619L134.432 68.7273ZM133.245 69.8686C132.706 70.1468 131.952 70.3182 130.927 70.3182V72.3182C132.156 72.3182 133.253 72.1155 134.163 71.6456L133.245 69.8686ZM130.927 70.3182H126.95V72.3182H130.927V70.3182ZM127.95 71.3182V69.7273H125.95V71.3182H127.95ZM126.95 70.7273H130.87V68.7273H126.95V70.7273ZM130.87 70.7273C131.731 70.7273 132.521 70.6034 133.178 70.2879L132.313 68.4848C132.023 68.6238 131.563 68.7273 130.87 68.7273V70.7273ZM133.175 70.2896C133.824 69.9808 134.346 69.5138 134.673 68.8757L132.892 67.9652C132.792 68.1604 132.623 68.3373 132.316 68.4832L133.175 70.2896ZM134.671 68.8796C134.977 68.2875 135.109 67.6211 135.109 66.9148H133.109C133.109 67.3732 133.024 67.7106 132.894 67.9613L134.671 68.8796ZM135.109 66.9148C135.109 66.2073 134.976 65.5397 134.677 64.9406L132.888 65.835C133.024 66.1071 133.109 66.4575 133.109 66.9148H135.109ZM134.677 64.9406C134.352 64.2914 133.836 63.8066 133.182 63.4831L132.295 65.2755C132.597 65.4254 132.777 65.613 132.888 65.835L134.677 64.9406ZM133.189 63.4866C132.521 63.1494 131.717 63.017 130.842 63.017V65.017C131.539 65.017 131.999 65.1262 132.288 65.2719L133.189 63.4866ZM130.842 63.017H127.745V65.017H130.842V63.017ZM126.745 64.017V77H128.745V64.017H126.745ZM127.745 76H125.984V78H127.745V76ZM131.954 70.9464L135.533 77.4805L137.287 76.5195L133.708 69.9855L131.954 70.9464ZM136.41 76H134.365V78H136.41V76ZM135.245 76.5254L131.722 69.9914L129.962 70.9405L133.484 77.4746L135.245 76.5254ZM130.842 71.4659H132.831V69.4659H130.842V71.4659ZM138.777 77H137.777V78H138.777V77ZM138.777 62.4545V61.4545H137.777V62.4545H138.777ZM147.555 62.4545H148.555V61.4545H147.555V62.4545ZM147.555 64.017V65.017H148.555V64.017H147.555ZM140.538 64.017V63.017H139.538V64.017H140.538ZM140.538 68.9318H139.538V69.9318H140.538V68.9318ZM147.101 68.9318H148.101V67.9318H147.101V68.9318ZM147.101 70.4943V71.4943H148.101V70.4943H147.101ZM140.538 70.4943V69.4943H139.538V70.4943H140.538ZM140.538 75.4375H139.538V76.4375H140.538V75.4375ZM147.669 75.4375H148.669V74.4375H147.669V75.4375ZM147.669 77V78H148.669V77H147.669ZM139.777 77V62.4545H137.777V77H139.777ZM138.777 63.4545H147.555V61.4545H138.777V63.4545ZM146.555 62.4545V64.017H148.555V62.4545H146.555ZM147.555 63.017H140.538V65.017H147.555V63.017ZM139.538 64.017V68.9318H141.538V64.017H139.538ZM140.538 69.9318H147.101V67.9318H140.538V69.9318ZM146.101 68.9318V70.4943H148.101V68.9318H146.101ZM147.101 69.4943H140.538V71.4943H147.101V69.4943ZM139.538 70.4943V75.4375H141.538V70.4943H139.538ZM140.538 76.4375H147.669V74.4375H140.538V76.4375ZM146.669 75.4375V77H148.669V75.4375H146.669ZM147.669 76H138.777V78H147.669V76ZM151.582 62.4545L152.432 61.9278L152.139 61.4545H151.582V62.4545ZM155.332 68.5057L154.482 69.0324L154.776 69.5057H155.332V68.5057ZM155.446 68.5057V69.5057H156.003L156.296 69.0324L155.446 68.5057ZM159.196 62.4545V61.4545H158.639L158.346 61.9278L159.196 62.4545ZM161.27 62.4545L162.116 62.9869L163.08 61.4545H161.27V62.4545ZM156.696 69.7273L155.85 69.1949L155.515 69.7273L155.85 70.2596L156.696 69.7273ZM161.27 77V78H163.08L162.116 76.4676L161.27 77ZM159.196 77L158.351 77.534L158.645 78H159.196V77ZM155.446 71.0625L156.292 70.5285L155.997 70.0625H155.446V71.0625ZM155.332 71.0625V70.0625H154.781L154.487 70.5285L155.332 71.0625ZM151.582 77V78H152.134L152.428 77.534L151.582 77ZM149.509 77L148.668 76.4582L147.674 78H149.509V77ZM154.196 69.7273L155.037 70.269L155.386 69.7273L155.037 69.1855L154.196 69.7273ZM149.509 62.4545V61.4545H147.674L148.668 62.9963L149.509 62.4545ZM150.732 62.9813L154.482 69.0324L156.182 67.9789L152.432 61.9278L150.732 62.9813ZM155.332 69.5057H155.446V67.5057H155.332V69.5057ZM156.296 69.0324L160.046 62.9813L158.346 61.9278L154.596 67.9789L156.296 69.0324ZM159.196 63.4545H161.27V61.4545H159.196V63.4545ZM160.423 61.9222L155.85 69.1949L157.543 70.2596L162.116 62.9869L160.423 61.9222ZM155.85 70.2596L160.423 77.5324L162.116 76.4676L157.543 69.1949L155.85 70.2596ZM161.27 76H159.196V78H161.27V76ZM160.042 76.466L156.292 70.5285L154.601 71.5965L158.351 77.534L160.042 76.466ZM155.446 70.0625H155.332V72.0625H155.446V70.0625ZM154.487 70.5285L150.737 76.466L152.428 77.534L156.178 71.5965L154.487 70.5285ZM151.582 76H149.509V78H151.582V76ZM150.349 77.5418L155.037 70.269L153.355 69.1855L148.668 76.4582L150.349 77.5418ZM155.037 69.1855L150.349 61.9128L148.668 62.9963L153.355 70.269L155.037 69.1855ZM149.509 63.4545H151.582V61.4545H149.509V63.4545Z" fill="black" mask="url(#path-1-outside-1_1_3)"/>
<path d="M38.6818 1.45454H39.6818V0.454544H38.6818V1.45454ZM38.6818 48V49H39.6818V48H38.6818ZM32.2273 48L31.4054 48.5696L31.7036 49H32.2273V48ZM8.56818 13.8636L9.39008 13.294L9.0918 12.8636H8.56818V13.8636ZM8.13636 13.8636V12.8636H7.13636V13.8636H8.13636ZM8.13636 48V49H9.13636V48H8.13636ZM1.11364 48H0.113636V49H1.11364V48ZM1.11364 1.45454V0.454544H0.113636V1.45454H1.11364ZM7.61364 1.45454L8.43563 0.88505L8.13737 0.454544H7.61364V1.45454ZM31.2955 35.6364L30.4735 36.2059L30.7717 36.6364H31.2955V35.6364ZM31.7273 35.6364V36.6364H32.7273V35.6364H31.7273ZM31.7273 1.45454V0.454544H30.7273V1.45454H31.7273ZM37.6818 1.45454V48H39.6818V1.45454H37.6818ZM38.6818 47H32.2273V49H38.6818V47ZM33.0492 47.4304L9.39008 13.294L7.74629 14.4333L31.4054 48.5696L33.0492 47.4304ZM8.56818 12.8636H8.13636V14.8636H8.56818V12.8636ZM7.13636 13.8636V48H9.13636V13.8636H7.13636ZM8.13636 47H1.11364V49H8.13636V47ZM2.11364 48V1.45454H0.113636V48H2.11364ZM1.11364 2.45454H7.61364V0.454544H1.11364V2.45454ZM6.79164 2.02404L30.4735 36.2059L32.1175 35.0669L8.43563 0.88505L6.79164 2.02404ZM31.2955 36.6364H31.7273V34.6364H31.2955V36.6364ZM32.7273 35.6364V1.45454H30.7273V35.6364H32.7273ZM31.7273 2.45454H38.6818V0.454544H31.7273V2.45454ZM55.9489 1.45454H56.9489V0.454544H55.9489V1.45454ZM55.9489 48V49H56.9489V48H55.9489ZM48.9261 48H47.9261V49H48.9261V48ZM48.9261 1.45454V0.454544H47.9261V1.45454H48.9261ZM54.9489 1.45454V48H56.9489V1.45454H54.9489ZM55.9489 47H48.9261V49H55.9489V47ZM49.9261 48V1.45454H47.9261V48H49.9261ZM48.9261 2.45454H55.9489V0.454544H48.9261V2.45454ZM96.108 1.45454V0.454544H95.108V1.45454H96.108ZM103.153 1.45454H104.153V0.454544H103.153V1.45454ZM100.858 40.7273L101.711 41.2494L101.712 41.2471L100.858 40.7273ZM94.4034 46.6364L94.8603 47.5259L94.8642 47.5239L94.4034 46.6364ZM74.9261 46.6364L74.4654 47.5239L74.4692 47.5259L74.9261 46.6364ZM68.4716 40.7273L67.6173 41.2471L67.6187 41.2493L68.4716 40.7273ZM66.1761 1.45454V0.454544H65.1761V1.45454H66.1761ZM73.1989 1.45454H74.1989V0.454544H73.1989V1.45454ZM74.5852 37.1136L73.7145 37.6054L73.718 37.6115L74.5852 37.1136ZM78.5625 40.9773L78.0815 41.854L78.0875 41.8572L78.5625 40.9773ZM90.767 40.9773L91.2421 41.8572L91.2448 41.8558L90.767 40.9773ZM94.7216 37.1136L93.8509 36.6218L93.8474 36.628L94.7216 37.1136ZM96.108 2.45454H103.153V0.454544H96.108V2.45454ZM102.153 1.45454V32.0682H104.153V1.45454H102.153ZM102.153 32.0682C102.153 35.1625 101.429 37.8653 100.004 40.2075L101.712 41.2471C103.348 38.5589 104.153 35.489 104.153 32.0682H102.153ZM100.005 40.2052C98.5761 42.5397 96.5649 44.3876 93.9427 45.7488L94.8642 47.5239C97.7874 46.0064 100.079 43.9149 101.711 41.2493L100.005 40.2052ZM93.9465 45.7468C91.3403 47.0856 88.2526 47.7727 84.6534 47.7727V49.7727C88.5087 49.7727 91.9211 49.0356 94.8603 47.5259L93.9465 45.7468ZM84.6534 47.7727C81.0701 47.7727 77.9898 47.0859 75.383 45.7468L74.4692 47.5259C77.4079 49.0354 80.8125 49.7727 84.6534 49.7727V47.7727ZM75.3869 45.7488C72.7646 44.3876 70.7535 42.5397 69.3245 40.2052L67.6187 41.2493C69.2503 43.9149 71.5422 46.0064 74.4654 47.5239L75.3869 45.7488ZM69.3259 40.2075C67.9008 37.8653 67.1761 35.1625 67.1761 32.0682H65.1761C65.1761 35.489 65.9818 38.5589 67.6173 41.2471L69.3259 40.2075ZM67.1761 32.0682V1.45454H65.1761V32.0682H67.1761ZM66.1761 2.45454H73.1989V0.454544H66.1761V2.45454ZM72.1989 1.45454V31.5H74.1989V1.45454H72.1989ZM72.1989 31.5C72.1989 33.7572 72.6957 35.8016 73.7145 37.6054L75.4559 36.6218C74.6263 35.153 74.1989 33.4549 74.1989 31.5H72.1989ZM73.718 37.6115C74.7522 39.413 76.2142 40.8294 78.0815 41.854L79.0435 40.1006C77.4866 39.2463 76.2971 38.087 75.4525 36.6158L73.718 37.6115ZM78.0875 41.8572C79.9729 42.875 82.1732 43.3636 84.6534 43.3636V41.3636C82.4367 41.3636 80.5764 40.928 79.0375 40.0973L78.0875 41.8572ZM84.6534 43.3636C87.1476 43.3636 89.3558 42.8755 91.2421 41.8572L90.292 40.0973C88.754 40.9275 86.8865 41.3636 84.6534 41.3636V43.3636ZM91.2448 41.8558C93.13 40.8305 94.5897 39.4101 95.5957 37.5993L93.8474 36.628C93.0353 38.0899 91.8586 39.2453 90.2893 40.0988L91.2448 41.8558ZM95.5923 37.6054C96.6111 35.8016 97.108 33.7572 97.108 31.5H95.108C95.108 33.4549 94.6805 35.153 93.8509 36.6218L95.5923 37.6054ZM97.108 31.5V1.45454H95.108V31.5H97.108ZM113.364 1.45454V0.454544H112.364V1.45454H113.364ZM121.886 1.45454L122.812 1.07555L122.557 0.454544H121.886V1.45454ZM136.705 37.6364L135.779 38.0154L136.033 38.6364H136.705V37.6364ZM137.25 37.6364V38.6364H137.921L138.175 38.0154L137.25 37.6364ZM152.068 1.45454V0.454544H151.397L151.143 1.07555L152.068 1.45454ZM160.591 1.45454H161.591V0.454544H160.591V1.45454ZM160.591 48V49H161.591V48H160.591ZM153.909 48H152.909V49H153.909V48ZM153.909 14.3182H154.909V13.3182H153.909V14.3182ZM153.477 14.3182V13.3182H152.805L152.551 13.9401L153.477 14.3182ZM139.75 47.9318V48.9318H140.422L140.676 48.3099L139.75 47.9318ZM134.205 47.9318L133.279 48.3097L133.533 48.9318H134.205V47.9318ZM120.477 14.2955L121.403 13.9176L121.149 13.2955H120.477V14.2955ZM120.045 14.2955V13.2955H119.045V14.2955H120.045ZM120.045 48V49H121.045V48H120.045ZM113.364 48H112.364V49H113.364V48ZM113.364 2.45454H121.886V0.454544H113.364V2.45454ZM120.961 1.83354L135.779 38.0154L137.63 37.2574L122.812 1.07555L120.961 1.83354ZM136.705 38.6364H137.25V36.6364H136.705V38.6364ZM138.175 38.0154L152.994 1.83354L151.143 1.07555L136.325 37.2574L138.175 38.0154ZM152.068 2.45454H160.591V0.454544H152.068V2.45454ZM159.591 1.45454V48H161.591V1.45454H159.591ZM160.591 47H153.909V49H160.591V47ZM154.909 48V14.3182H152.909V48H154.909ZM153.909 13.3182H153.477V15.3182H153.909V13.3182ZM152.551 13.9401L138.824 47.5537L140.676 48.3099L154.403 14.6963L152.551 13.9401ZM139.75 46.9318H134.205V48.9318H139.75V46.9318ZM135.13 47.554L121.403 13.9176L119.551 14.6733L133.279 48.3097L135.13 47.554ZM120.477 13.2955H120.045V15.2955H120.477V13.2955ZM119.045 14.2955V48H121.045V14.2955H119.045ZM120.045 47H113.364V49H120.045V47ZM114.364 48V1.45454H112.364V48H114.364ZM99.0114 77H98.0114V78H99.0114V77ZM99.0114 62.4545V61.4545H98.0114V62.4545H99.0114ZM107.733 62.4545H108.733V61.4545H107.733V62.4545ZM107.733 64.017V65.017H108.733V64.017H107.733ZM100.773 64.017V63.017H99.7727V64.017H100.773ZM100.773 68.9318H99.7727V69.9318H100.773V68.9318ZM107.08 68.9318H108.08V67.9318H107.08V68.9318ZM107.08 70.4943V71.4943H108.08V70.4943H107.08ZM100.773 70.4943V69.4943H99.7727V70.4943H100.773ZM100.773 77V78H101.773V77H100.773ZM100.011 77V62.4545H98.0114V77H100.011ZM99.0114 63.4545H107.733V61.4545H99.0114V63.4545ZM106.733 62.4545V64.017H108.733V62.4545H106.733ZM107.733 63.017H100.773V65.017H107.733V63.017ZM99.7727 64.017V68.9318H101.773V64.017H99.7727ZM100.773 69.9318H107.08V67.9318H100.773V69.9318ZM106.08 68.9318V70.4943H108.08V68.9318H106.08ZM107.08 69.4943H100.773V71.4943H107.08V69.4943ZM99.7727 70.4943V77H101.773V70.4943H99.7727ZM100.773 76H99.0114V78H100.773V76ZM122.191 73.7045L121.295 73.2604L121.295 73.2604L122.191 73.7045ZM119.912 76.2898L120.443 77.1368L120.443 77.1368L119.912 76.2898ZM113.292 76.2898L112.761 77.1368L112.761 77.1368L113.292 76.2898ZM111.012 73.7045L111.908 73.2604L111.908 73.2604L111.012 73.7045ZM111.012 65.75L110.116 65.3058L111.012 65.75ZM119.912 63.1648L120.443 62.3177L120.443 62.3177L119.912 63.1648ZM122.191 65.75L121.295 66.1942L121.295 66.1942L122.191 65.75ZM120.686 66.5384L119.785 66.9717L119.786 66.9757L120.686 66.5384ZM118.988 64.571L118.457 65.4184L118.46 65.42L118.988 64.571ZM114.208 64.571L113.68 63.7221L113.677 63.7237L114.208 64.571ZM112.511 66.5384L111.612 66.101L111.61 66.105L112.511 66.5384ZM112.511 72.9162L111.61 73.3496L111.612 73.3536L112.511 72.9162ZM114.208 74.8835L113.677 75.7309L113.68 75.7325L114.208 74.8835ZM118.988 74.8835L118.46 74.0346L118.457 74.0362L118.988 74.8835ZM120.686 72.9162L119.786 72.4788L119.785 72.4828L120.686 72.9162ZM122.022 69.7273C122.022 71.1421 121.767 72.3091 121.295 73.2604L123.087 74.1487C123.724 72.8651 124.022 71.3807 124.022 69.7273H122.022ZM121.295 73.2604C120.816 74.2285 120.175 74.9438 119.38 75.4427L120.443 77.1368C121.58 76.4236 122.459 75.4155 123.087 74.1487L121.295 73.2604ZM119.38 75.4427C118.587 75.9401 117.672 76.1989 116.602 76.1989V78.1989C118.013 78.1989 119.304 77.8516 120.443 77.1368L119.38 75.4427ZM116.602 76.1989C115.532 76.1989 114.616 75.9401 113.824 75.4427L112.761 77.1368C113.9 77.8516 115.191 78.1989 116.602 78.1989V76.1989ZM113.824 75.4427C113.029 74.9438 112.388 74.2285 111.908 73.2604L110.116 74.1487C110.744 75.4155 111.624 76.4236 112.761 77.1368L113.824 75.4427ZM111.908 73.2604C111.437 72.3091 111.181 71.1421 111.181 69.7273H109.181C109.181 71.3807 109.48 72.8651 110.116 74.1487L111.908 73.2604ZM111.181 69.7273C111.181 68.3125 111.437 67.1454 111.908 66.1942L110.116 65.3058C109.48 66.5894 109.181 68.0739 109.181 69.7273H111.181ZM111.908 66.1942C112.388 65.2261 113.029 64.5107 113.824 64.0118L112.761 62.3177C111.624 63.031 110.744 64.0391 110.116 65.3058L111.908 66.1942ZM113.824 64.0118C114.616 63.5144 115.532 63.2557 116.602 63.2557V61.2557C115.191 61.2557 113.9 61.603 112.761 62.3177L113.824 64.0118ZM116.602 63.2557C117.672 63.2557 118.587 63.5144 119.38 64.0118L120.443 62.3177C119.304 61.603 118.013 61.2557 116.602 61.2557V63.2557ZM119.38 64.0118C120.175 64.5107 120.816 65.2261 121.295 66.1942L123.087 65.3058C122.459 64.0391 121.58 63.031 120.443 62.3177L119.38 64.0118ZM121.295 66.1942C121.767 67.1454 122.022 68.3125 122.022 69.7273H124.022C124.022 68.0739 123.724 66.5894 123.087 65.3058L121.295 66.1942ZM122.318 69.7273C122.318 68.361 122.09 67.1389 121.585 66.101L119.786 66.9757C120.124 67.6707 120.318 68.5746 120.318 69.7273H122.318ZM121.587 66.105C121.1 65.0923 120.415 64.2811 119.517 63.7221L118.46 65.42C118.992 65.7511 119.438 66.2515 119.785 66.9717L121.587 66.105ZM119.519 63.7237C118.642 63.1737 117.66 62.9034 116.602 62.9034V64.9034C117.305 64.9034 117.914 65.0782 118.457 65.4184L119.519 63.7237ZM116.602 62.9034C115.543 62.9034 114.561 63.1736 113.68 63.7221L114.737 65.42C115.286 65.0782 115.899 64.9034 116.602 64.9034V62.9034ZM113.677 63.7237C112.786 64.2824 112.103 65.0918 111.612 66.101L113.41 66.9757C113.762 66.252 114.211 65.7498 114.739 65.4184L113.677 63.7237ZM111.61 66.105C111.111 67.1418 110.886 68.3624 110.886 69.7273H112.886C112.886 68.5732 113.077 67.6678 113.412 66.9717L111.61 66.105ZM110.886 69.7273C110.886 71.0922 111.111 72.3127 111.61 73.3496L113.412 72.4828C113.077 71.7867 112.886 70.8813 112.886 69.7273H110.886ZM111.612 73.3536C112.103 74.3628 112.786 75.1722 113.677 75.7309L114.739 74.0362C114.211 73.7047 113.762 73.2026 113.41 72.4788L111.612 73.3536ZM113.68 75.7325C114.561 76.2809 115.543 76.5511 116.602 76.5511V74.5511C115.899 74.5511 115.286 74.3763 114.737 74.0346L113.68 75.7325ZM116.602 76.5511C117.66 76.5511 118.642 76.2809 119.519 75.7309L118.457 74.0362C117.914 74.3763 117.305 74.5511 116.602 74.5511V76.5511ZM119.517 75.7325C120.415 75.1734 121.1 74.3623 121.587 73.3496L119.785 72.4828C119.438 73.203 118.992 73.7035 118.46 74.0346L119.517 75.7325ZM121.585 73.3536C122.09 72.3156 122.318 71.0936 122.318 69.7273H120.318C120.318 70.8799 120.124 71.7838 119.786 72.4788L121.585 73.3536ZM125.984 77H124.984V78H125.984V77ZM125.984 62.4545V61.4545H124.984V62.4545H125.984ZM133.697 63.0369L133.227 63.9196L133.232 63.922L133.697 63.0369ZM135.316 64.6207L134.43 65.0829L134.43 65.0829L135.316 64.6207ZM135.316 69.1946L134.432 68.7273L134.432 68.7273L135.316 69.1946ZM133.704 70.7571L134.163 71.6457L134.168 71.6433L133.704 70.7571ZM126.95 71.3182H125.95V72.3182H126.95V71.3182ZM126.95 69.7273V68.7273H125.95V69.7273H126.95ZM132.745 69.3864L132.316 68.4832L132.313 68.4848L132.745 69.3864ZM133.782 68.4205L132.894 67.9613L132.892 67.9652L133.782 68.4205ZM132.738 64.3793L132.288 65.2719L132.295 65.2755L132.738 64.3793ZM127.745 64.017V63.017H126.745V64.017H127.745ZM127.745 77V78H128.745V77H127.745ZM132.831 70.4659L133.708 69.9855L133.423 69.4659H132.831V70.4659ZM136.41 77V78H138.098L137.287 76.5195L136.41 77ZM134.365 77L133.484 77.4746L133.768 78H134.365V77ZM130.842 70.4659V69.4659H129.167L129.962 70.9405L130.842 70.4659ZM126.984 77V62.4545H124.984V77H126.984ZM125.984 63.4545H130.899V61.4545H125.984V63.4545ZM130.899 63.4545C131.93 63.4545 132.687 63.6318 133.227 63.9196L134.167 62.1543C133.249 61.6655 132.141 61.4545 130.899 61.4545V63.4545ZM133.232 63.922C133.797 64.2193 134.182 64.6069 134.43 65.0829L136.203 64.1586C135.751 63.2899 135.056 62.6216 134.163 62.1519L133.232 63.922ZM134.43 65.0829C134.696 65.5948 134.842 66.1975 134.842 66.9148H136.842C136.842 65.9181 136.637 64.9913 136.203 64.1586L134.43 65.0829ZM134.842 66.9148C134.842 67.6324 134.696 68.2278 134.432 68.7273L136.201 69.6619C136.637 68.8356 136.842 67.9112 136.842 66.9148H134.842ZM134.432 68.7273C134.185 69.195 133.803 69.5771 133.241 69.8709L134.168 71.6433C135.054 71.1795 135.747 70.52 136.201 69.6619L134.432 68.7273ZM133.245 69.8686C132.706 70.1468 131.952 70.3182 130.927 70.3182V72.3182C132.156 72.3182 133.253 72.1155 134.163 71.6456L133.245 69.8686ZM130.927 70.3182H126.95V72.3182H130.927V70.3182ZM127.95 71.3182V69.7273H125.95V71.3182H127.95ZM126.95 70.7273H130.87V68.7273H126.95V70.7273ZM130.87 70.7273C131.731 70.7273 132.521 70.6034 133.178 70.2879L132.313 68.4848C132.023 68.6238 131.563 68.7273 130.87 68.7273V70.7273ZM133.175 70.2896C133.824 69.9808 134.346 69.5138 134.673 68.8757L132.892 67.9652C132.792 68.1604 132.623 68.3373 132.316 68.4832L133.175 70.2896ZM134.671 68.8796C134.977 68.2875 135.109 67.6211 135.109 66.9148H133.109C133.109 67.3732 133.024 67.7106 132.894 67.9613L134.671 68.8796ZM135.109 66.9148C135.109 66.2073 134.976 65.5397 134.677 64.9406L132.888 65.835C133.024 66.1071 133.109 66.4575 133.109 66.9148H135.109ZM134.677 64.9406C134.352 64.2914 133.836 63.8066 133.182 63.4831L132.295 65.2755C132.597 65.4254 132.777 65.613 132.888 65.835L134.677 64.9406ZM133.189 63.4866C132.521 63.1494 131.717 63.017 130.842 63.017V65.017C131.539 65.017 131.999 65.1262 132.288 65.2719L133.189 63.4866ZM130.842 63.017H127.745V65.017H130.842V63.017ZM126.745 64.017V77H128.745V64.017H126.745ZM127.745 76H125.984V78H127.745V76ZM131.954 70.9464L135.533 77.4805L137.287 76.5195L133.708 69.9855L131.954 70.9464ZM136.41 76H134.365V78H136.41V76ZM135.245 76.5254L131.722 69.9914L129.962 70.9405L133.484 77.4746L135.245 76.5254ZM130.842 71.4659H132.831V69.4659H130.842V71.4659ZM138.777 77H137.777V78H138.777V77ZM138.777 62.4545V61.4545H137.777V62.4545H138.777ZM147.555 62.4545H148.555V61.4545H147.555V62.4545ZM147.555 64.017V65.017H148.555V64.017H147.555ZM140.538 64.017V63.017H139.538V64.017H140.538ZM140.538 68.9318H139.538V69.9318H140.538V68.9318ZM147.101 68.9318H148.101V67.9318H147.101V68.9318ZM147.101 70.4943V71.4943H148.101V70.4943H147.101ZM140.538 70.4943V69.4943H139.538V70.4943H140.538ZM140.538 75.4375H139.538V76.4375H140.538V75.4375ZM147.669 75.4375H148.669V74.4375H147.669V75.4375ZM147.669 77V78H148.669V77H147.669ZM139.777 77V62.4545H137.777V77H139.777ZM138.777 63.4545H147.555V61.4545H138.777V63.4545ZM146.555 62.4545V64.017H148.555V62.4545H146.555ZM147.555 63.017H140.538V65.017H147.555V63.017ZM139.538 64.017V68.9318H141.538V64.017H139.538ZM140.538 69.9318H147.101V67.9318H140.538V69.9318ZM146.101 68.9318V70.4943H148.101V68.9318H146.101ZM147.101 69.4943H140.538V71.4943H147.101V69.4943ZM139.538 70.4943V75.4375H141.538V70.4943H139.538ZM140.538 76.4375H147.669V74.4375H140.538V76.4375ZM146.669 75.4375V77H148.669V75.4375H146.669ZM147.669 76H138.777V78H147.669V76ZM151.582 62.4545L152.432 61.9278L152.139 61.4545H151.582V62.4545ZM155.332 68.5057L154.482 69.0324L154.776 69.5057H155.332V68.5057ZM155.446 68.5057V69.5057H156.003L156.296 69.0324L155.446 68.5057ZM159.196 62.4545V61.4545H158.639L158.346 61.9278L159.196 62.4545ZM161.27 62.4545L162.116 62.9869L163.08 61.4545H161.27V62.4545ZM156.696 69.7273L155.85 69.1949L155.515 69.7273L155.85 70.2596L156.696 69.7273ZM161.27 77V78H163.08L162.116 76.4676L161.27 77ZM159.196 77L158.351 77.534L158.645 78H159.196V77ZM155.446 71.0625L156.292 70.5285L155.997 70.0625H155.446V71.0625ZM155.332 71.0625V70.0625H154.781L154.487 70.5285L155.332 71.0625ZM151.582 77V78H152.134L152.428 77.534L151.582 77ZM149.509 77L148.668 76.4582L147.674 78H149.509V77ZM154.196 69.7273L155.037 70.269L155.386 69.7273L155.037 69.1855L154.196 69.7273ZM149.509 62.4545V61.4545H147.674L148.668 62.9963L149.509 62.4545ZM150.732 62.9813L154.482 69.0324L156.182 67.9789L152.432 61.9278L150.732 62.9813ZM155.332 69.5057H155.446V67.5057H155.332V69.5057ZM156.296 69.0324L160.046 62.9813L158.346 61.9278L154.596 67.9789L156.296 69.0324ZM159.196 63.4545H161.27V61.4545H159.196V63.4545ZM160.423 61.9222L155.85 69.1949L157.543 70.2596L162.116 62.9869L160.423 61.9222ZM155.85 70.2596L160.423 77.5324L162.116 76.4676L157.543 69.1949L155.85 70.2596ZM161.27 76H159.196V78H161.27V76ZM160.042 76.466L156.292 70.5285L154.601 71.5965L158.351 77.534L160.042 76.466ZM155.446 70.0625H155.332V72.0625H155.446V70.0625ZM154.487 70.5285L150.737 76.466L152.428 77.534L156.178 71.5965L154.487 70.5285ZM151.582 76H149.509V78H151.582V76ZM150.349 77.5418L155.037 70.269L153.355 69.1855L148.668 76.4582L150.349 77.5418ZM155.037 69.1855L150.349 61.9128L148.668 62.9963L153.355 70.269L155.037 69.1855ZM149.509 63.4545H151.582V61.4545H149.509V63.4545Z" fill="black" mask="url(#path-1-outside-1_1_3)"/>
</svg>
